# File units = meters
mtllib Building.mtl
g door - outer metal frame
usemtl 0.647059_0.647059_0.647059_0.000000_0.000000
o mesh0
v 4.74175 -8.40681 0.6096 
v 4.74175 -8.40681 2.4384 
v 4.74175 -8.43221 2.4384 
v 4.74175 -8.43221 0.6096 
vn 1 0 0 
vn 1 0 0 
vn 1 0 0 
vn 1 0 0 
f 1//1 2//2 3//3 
f 3//3 4//4 1//1 
o mesh1
v 4.65285 -8.40681 0.6096 
v 4.74175 -8.40681 0.6096 
v 4.74175 -8.43221 0.6096 
v 4.65285 -8.43221 0.6096 
vn 0 0 -1 
vn 0 0 -1 
vn 0 0 -1 
vn 0 0 -1 
f 5//5 6//6 7//7 
f 7//7 8//8 5//5 
o mesh2
v 4.65285 -8.43221 0.6096 
v 4.65285 -8.43221 2.4384 
v 4.65285 -8.40681 2.4384 
v 4.65285 -8.40681 0.6096 
vn -1 0 0 
vn -1 0 0 
vn -1 0 0 
vn -1 0 0 
f 9//9 10//10 11//11 
f 11//11 12//12 9//9 
o mesh3
v 4.65285 -8.40681 0.6096 
v 4.65285 -8.40681 2.4384 
v 4.74175 -8.40681 2.4384 
v 4.74175 -8.40681 0.6096 
vn 0 1 0 
vn 0 1 0 
vn 0 1 0 
vn 0 1 0 
f 13//13 14//14 15//15 
f 15//15 16//16 13//13 
o mesh4
v 4.65285 -8.43221 2.4384 
v 4.65285 -8.43221 0.6096 
v 4.74175 -8.43221 0.6096 
v 4.74175 -8.43221 2.4384 
vn 0 -1 0 
vn 0 -1 0 
vn 0 -1 0 
vn 0 -1 0 
f 17//17 18//18 19//19 
f 19//19 20//20 17//17 
o mesh5
v 4.65285 -8.40681 2.4384 
v 4.65285 -8.43221 2.4384 
v 4.74175 -8.43221 2.4384 
v 4.74175 -8.40681 2.4384 
vn 0 0 1 
vn 0 0 1 
vn 0 0 1 
vn 0 0 1 
f 21//21 22//22 23//23 
f 23//23 24//24 21//21 
g door- glass
usemtl 0.917647_0.917647_0.917647_0.000000_0.580392
o mesh6
v 4.66047 -8.43221 0.6096 
v 4.66047 -9.32121 0.6096 
v 4.66047 -9.32121 2.4384 
v 4.66047 -8.43221 2.4384 
vn -1 0 0 
vn -1 0 0 
vn -1 0 0 
vn -1 0 0 
f 25//25 26//26 27//27 
f 27//27 28//28 25//25 
o mesh7
v 4.73667 -8.43221 2.4384 
v 4.66047 -8.43221 2.4384 
v 4.66047 -9.32121 2.4384 
v 4.73667 -9.32121 2.4384 
vn 0 0 1 
vn 0 0 1 
vn 0 0 1 
vn 0 0 1 
f 29//29 30//30 31//31 
f 31//31 32//32 29//29 
o mesh8
v 4.73667 -8.43221 2.4384 
v 4.73667 -8.43221 0.6096 
v 4.66047 -8.43221 0.6096 
v 4.66047 -8.43221 2.4384 
vn 0 1 0 
vn 0 1 0 
vn 0 1 0 
vn 0 1 0 
f 33//33 34//34 35//35 
f 35//35 36//36 33//33 
o mesh9
v 4.73667 -8.43221 0.6096 
v 4.73667 -9.32121 0.6096 
v 4.66047 -9.32121 0.6096 
v 4.66047 -8.43221 0.6096 
vn 0 0 -1 
vn 0 0 -1 
vn 0 0 -1 
vn 0 0 -1 
f 37//37 38//38 39//39 
f 39//39 40//40 37//37 
o mesh10
v 4.73667 -9.32121 2.4384 
v 4.66047 -9.32121 2.4384 
v 4.66047 -9.32121 0.6096 
v 4.73667 -9.32121 0.6096 
vn 0 -1 0 
vn 0 -1 0 
vn 0 -1 0 
vn 0 -1 0 
f 41//41 42//42 43//43 
f 43//43 44//44 41//41 
o mesh11
v 4.73667 -8.43221 0.6096 
v 4.73667 -8.43221 2.4384 
v 4.73667 -9.32121 2.4384 
v 4.73667 -9.32121 0.6096 
vn 1 0 0 
vn 1 0 0 
vn 1 0 0 
vn 1 0 0 
f 45//45 46//46 47//47 
f 47//47 48//48 45//45 
g door- outer metal frame
usemtl 0.647059_0.647059_0.647059_0.000000_0.000000
o mesh12
v 4.74175 -8.38141 2.4384 
v 4.65285 -8.38141 2.4384 
v 4.65285 -8.40681 2.4384 
v 4.74175 -8.40681 2.4384 
vn 0 0 1 
vn 0 0 1 
vn 0 0 1 
vn 0 0 1 
f 49//49 50//50 51//51 
f 51//51 52//52 49//49 
o mesh13
v 4.74175 -8.38141 0.6096 
v 4.65285 -8.38141 0.6096 
v 4.65285 -8.38141 2.4384 
v 4.74175 -8.38141 2.4384 
vn 0 1 0 
vn 0 1 0 
vn 0 1 0 
vn 0 1 0 
f 53//53 54//54 55//55 
f 55//55 56//56 53//53 
o mesh14
v 4.74175 -8.40681 0.6096 
v 4.65285 -8.40681 0.6096 
v 4.65285 -8.38141 0.6096 
v 4.74175 -8.38141 0.6096 
vn 0 0 -1 
vn 0 0 -1 
vn 0 0 -1 
vn 0 0 -1 
f 57//57 58//58 59//59 
f 59//59 60//60 57//57 
o mesh15
v 4.74175 -8.40681 2.4384 
v 4.65285 -8.40681 2.4384 
v 4.65285 -8.40681 0.6096 
v 4.74175 -8.40681 0.6096 
vn 0 -1 0 
vn 0 -1 0 
vn 0 -1 0 
vn 0 -1 0 
f 61//61 62//62 63//63 
f 63//63 64//64 61//61 
o mesh16
v 4.74175 -8.38141 0.6096 
v 4.74175 -8.38141 2.4384 
v 4.74175 -8.40681 2.4384 
v 4.74175 -8.40681 0.6096 
vn 1 0 0 
vn 1 0 0 
vn 1 0 0 
vn 1 0 0 
f 65//65 66//66 67//67 
f 67//67 68//68 65//65 
o mesh17
v 4.65285 -8.40681 0.6096 
v 4.65285 -8.40681 2.4384 
v 4.65285 -8.38141 2.4384 
v 4.65285 -8.38141 0.6096 
vn -1 0 0 
vn -1 0 0 
vn -1 0 0 
vn -1 0 0 
f 69//69 70//70 71//71 
f 71//71 72//72 69//69 
g door- glass
usemtl 0.917647_0.917647_0.917647_0.000000_0.580392
o mesh18
v 4.73667 -7.49241 0.6096 
v 4.66047 -7.49241 0.6096 
v 4.66047 -7.49241 2.4384 
v 4.73667 -7.49241 2.4384 
vn 0 1 0 
vn 0 1 0 
vn 0 1 0 
vn 0 1 0 
f 73//73 74//74 75//75 
f 75//75 76//76 73//73 
o mesh19
v 4.73667 -8.38141 0.6096 
v 4.66047 -8.38141 0.6096 
v 4.66047 -7.49241 0.6096 
v 4.73667 -7.49241 0.6096 
vn 0 0 -1 
vn 0 0 -1 
vn 0 0 -1 
vn 0 0 -1 
f 77//77 78//78 79//79 
f 79//79 80//80 77//77 
o mesh20
v 4.73667 -8.38141 2.4384 
v 4.66047 -8.38141 2.4384 
v 4.66047 -8.38141 0.6096 
v 4.73667 -8.38141 0.6096 
vn 0 -1 0 
vn 0 -1 0 
vn 0 -1 0 
vn 0 -1 0 
f 81//81 82//82 83//83 
f 83//83 84//84 81//81 
o mesh21
v 4.73667 -7.49241 2.4384 
v 4.66047 -7.49241 2.4384 
v 4.66047 -8.38141 2.4384 
v 4.73667 -8.38141 2.4384 
vn 0 0 1 
vn 0 0 1 
vn 0 0 1 
vn 0 0 1 
f 85//85 86//86 87//87 
f 87//87 88//88 85//85 
o mesh22
v 4.73667 -8.38141 0.6096 
v 4.73667 -7.49241 0.6096 
v 4.73667 -7.49241 2.4384 
v 4.73667 -8.38141 2.4384 
vn 1 0 0 
vn 1 0 0 
vn 1 0 0 
vn 1 0 0 
f 89//89 90//90 91//91 
f 91//91 92//92 89//89 
o mesh23
v 4.66047 -8.38141 2.4384 
v 4.66047 -7.49241 2.4384 
v 4.66047 -7.49241 0.6096 
v 4.66047 -8.38141 0.6096 
vn -1 0 0 
vn -1 0 0 
vn -1 0 0 
vn -1 0 0 
f 93//93 94//94 95//95 
f 95//95 96//96 93//93 
g building
usemtl 0.647059_0.647059_0.647059_0.000000_0.000000
o mesh24
v 3.70797 -5.84141 0.6096 
v 4.62237 -5.84141 0.6096 
v 4.62237 -5.84141 6.7056 
v 3.70797 -5.84141 6.7056 
vn 0 -1 0 
vn 0 -1 0 
vn 0 -1 0 
vn 0 -1 0 
f 97//97 98//98 99//99 
f 99//99 100//100 97//97 
o mesh25
v 3.70797 -4.64761 6.7056 
v 3.70797 -4.64761 0 
v 3.70797 -5.84141 0.6096 
v 3.70797 -7.03521 0 
v 3.70797 -7.03521 0.6096 
v 3.70797 -5.84141 6.7056 
vn -1 -2.91397e-16 0 
vn -1 -2.91397e-16 0 
vn -1 -2.91397e-16 0 
vn -1 -2.91397e-16 0 
vn -1 -2.91397e-16 0 
vn -1 -2.91397e-16 0 
f 101//101 102//102 103//103 
f 104//104 105//105 103//103 
f 103//103 102//102 104//104 
f 103//103 106//106 101//101 
o mesh26
v -4.52163 -4.64761 6.7056 
v -4.52163 -4.64761 0 
v 3.70797 -4.64761 0 
v 3.70797 -4.64761 6.7056 
vn 0 -1 0 
vn 0 -1 0 
vn 0 -1 0 
vn 0 -1 0 
f 107//107 108//108 109//109 
f 109//109 110//110 107//107 
o mesh27
v -4.52163 4.64879 6.7056 
v -4.52163 4.64879 0 
v -4.52163 -4.64761 0 
v -4.52163 -4.64761 6.7056 
vn -1 -2.91397e-16 0 
vn -1 -2.91397e-16 0 
vn -1 -2.91397e-16 0 
vn -1 -2.91397e-16 0 
f 111//111 112//112 113//113 
f 113//113 114//114 111//111 
o mesh28
v -4.52163 4.64879 6.7056 
v 2.33637 4.64879 6.7056 
v 2.33637 4.64879 0 
v 9.19437 4.64879 0 
v 9.19437 4.64879 6.7056 
v -4.52163 4.64879 0 
vn 0 1 0 
vn 0 1 0 
vn 0 1 0 
vn 0 1 0 
vn 0 1 0 
vn 0 1 0 
f 115//115 116//116 117//117 
f 118//118 117//117 116//116 
f 116//116 119//119 118//118 
f 117//117 120//120 115//115 
o mesh29
v 3.70797 -4.64761 6.7056 
v 3.70797 -5.84141 6.7056 
v 4.62237 -5.84141 6.7056 
v 9.19437 -10.7436 6.7056 
v 9.19437 -3.04741 6.7056 
v 9.19437 4.64879 6.7056 
v -4.52163 -4.64761 6.7056 
v 2.33637 4.64879 6.7056 
v -4.52163 4.64879 6.7056 
v 4.62237 -10.7436 6.7056 
vn 0 0 1 
vn 0 0 1 
vn 0 0 1 
vn 0 0 1 
vn 0 0 1 
vn 0 0 1 
vn 0 0 1 
vn 0 0 1 
vn 0 0 1 
vn 0 0 1 
f 121//121 122//122 123//123 
f 124//124 125//125 123//123 
f 125//125 126//126 121//121 
f 127//127 121//121 128//128 
f 123//123 125//125 121//121 
f 121//121 126//126 128//128 
f 128//128 129//129 127//127 
f 123//123 130//130 124//124 
o mesh30
v 9.19437 4.64879 6.7056 
v 9.19437 -3.04741 6.7056 
v 9.19437 -3.04741 0 
v 9.19437 -10.7436 0 
v 9.19437 -10.7436 6.7056 
v 9.19437 4.64879 0 
vn 1 0 0 
vn 1 0 0 
vn 1 0 0 
vn 1 0 0 
vn 1 0 0 
vn 1 0 0 
f 131//131 132//132 133//133 
f 134//134 133//133 132//132 
f 132//132 135//135 134//134 
f 133//133 136//136 131//131 
o mesh31
v 3.70797 -10.7436 0 
v 9.19437 -10.7436 0 
v 4.62237 -10.7436 0.6096 
v 9.19437 -10.7436 6.7056 
v 4.62237 -10.7436 6.7056 
v 3.70797 -10.7436 0.6096 
vn 0 -1 0 
vn 0 -1 0 
vn 0 -1 0 
vn 0 -1 0 
vn 0 -1 0 
vn 0 -1 0 
f 137//137 138//138 139//139 
f 140//140 141//141 139//139 
f 139//139 138//138 140//140 
f 139//139 142//142 137//137 
o mesh32
v 3.70797 -10.7436 0.6096 
v 3.70797 -9.77841 0.6096 
v 3.70797 -9.77841 0 
v 3.70797 -10.7436 0 
vn -1 -2.91397e-16 0 
vn -1 -2.91397e-16 0 
vn -1 -2.91397e-16 0 
vn -1 -2.91397e-16 0 
f 143//143 144//144 145//145 
f 145//145 146//146 143//143 
o mesh33
v -4.52163 -4.64761 0 
v -4.52163 4.64879 0 
v 2.33637 4.64879 0 
v 9.19437 -3.04741 0 
v 3.70797 -7.03521 0 
v 3.70797 -4.64761 0 
v 3.70797 -9.77841 0 
v 9.19437 4.64879 0 
v 2.18397 -7.03521 0 
v 2.18397 -9.77841 0 
v 9.19437 -10.7436 0 
v 3.70797 -10.7436 0 
vn 0 0 -1 
vn 0 0 -1 
vn 0 0 -1 
vn 0 0 -1 
vn 0 0 -1 
vn 0 0 -1 
vn 0 0 -1 
vn 0 0 -1 
vn 0 0 -1 
vn 0 0 -1 
vn 0 0 -1 
vn 0 0 -1 
f 147//147 148//148 149//149 
f 150//150 151//151 152//152 
f 149//149 152//152 147//147 
f 150//150 153//153 151//151 
f 152//152 154//154 150//150 
f 155//155 151//151 153//153 
f 153//153 156//156 155//155 
f 157//157 158//158 153//153 
f 153//153 150//150 157//157 
f 149//149 154//154 152//152 
o mesh34
v 3.70797 -7.03521 0 
v 2.18397 -7.03521 0 
v 2.18397 -7.03521 0.3048 
v 2.48877 -7.03521 0.6096 
v 3.70797 -7.03521 0.6096 
vn -2.91397e-16 1 0 
vn -2.91397e-16 1 0 
vn -2.91397e-16 1 0 
vn -2.91397e-16 1 0 
vn -2.91397e-16 1 0 
f 159//159 160//160 161//161 
f 161//161 162//162 159//159 
f 162//162 163//163 159//159 
o mesh35
v 3.70797 -9.77841 0 
v 2.48877 -9.77841 0.6096 
v 2.18397 -9.77841 0.3048 
v 3.70797 -9.77841 0.6096 
v 2.18397 -9.77841 0 
vn 2.91397e-16 -1 0 
vn 2.91397e-16 -1 0 
vn 2.91397e-16 -1 0 
vn 2.91397e-16 -1 0 
vn 2.91397e-16 -1 0 
f 164//164 165//165 166//166 
f 164//164 167//167 165//165 
f 166//166 168//168 164//164 
o mesh36
v 2.18397 -7.03521 0 
v 2.18397 -9.77841 0 
v 2.18397 -9.47361 0.3048 
v 2.18397 -7.34001 0.3048 
v 2.18397 -9.77841 0.3048 
v 2.18397 -7.03521 0.3048 
vn -1 -2.91397e-16 0 
vn -1 -2.91397e-16 0 
vn -1 -2.91397e-16 0 
vn -1 -2.91397e-16 0 
vn -1 -2.91397e-16 0 
vn -1 -2.91397e-16 0 
f 169//169 170//170 171//171 
f 171//171 172//172 169//169 
f 170//170 173//173 171//171 
f 172//172 174//174 169//169 
o mesh37
v 2.48877 -9.77841 0.6096 
v 2.48877 -9.47361 0.6096 
v 2.18397 -9.47361 0.3048 
v 2.18397 -9.77841 0.3048 
vn -0.707107 -2.06049e-16 0.707107 
vn -0.707107 -2.06049e-16 0.707107 
vn -0.707107 -2.06049e-16 0.707107 
vn -0.707107 -2.06049e-16 0.707107 
f 175//175 176//176 177//177 
f 177//177 178//178 175//175 
o mesh38
v 2.79357 -9.47361 0.3048 
v 2.18397 -9.47361 0.3048 
v 2.48877 -9.47361 0.6096 
v 2.79357 -9.47361 0.6096 
vn -2.91397e-16 1 0 
vn -2.91397e-16 1 0 
vn -2.91397e-16 1 0 
vn -2.91397e-16 1 0 
f 179//179 180//180 181//181 
f 181//181 182//182 179//179 
o mesh39
v 2.18397 -9.47361 0.3048 
v 2.79357 -9.47361 0.3048 
v 2.79357 -7.34001 0.3048 
v 2.18397 -7.34001 0.3048 
vn 0 0 1 
vn 0 0 1 
vn 0 0 1 
vn 0 0 1 
f 183//183 184//184 185//185 
f 185//185 186//186 183//183 
o mesh40
v 2.79357 -9.47361 0.3048 
v 2.79357 -9.47361 0.6096 
v 2.79357 -7.34001 0.6096 
v 2.79357 -7.34001 0.3048 
vn -1 -2.91397e-16 0 
vn -1 -2.91397e-16 0 
vn -1 -2.91397e-16 0 
vn -1 -2.91397e-16 0 
f 187//187 188//188 189//189 
f 189//189 190//190 187//187 
o mesh41
v 2.79357 -7.34001 0.3048 
v 2.79357 -7.34001 0.6096 
v 2.48877 -7.34001 0.6096 
v 2.18397 -7.34001 0.3048 
vn 2.91397e-16 -1 0 
vn 2.91397e-16 -1 0 
vn 2.91397e-16 -1 0 
vn 2.91397e-16 -1 0 
f 191//191 192//192 193//193 
f 193//193 194//194 191//191 
o mesh42
v 2.18397 -7.03521 0.3048 
v 2.18397 -7.34001 0.3048 
v 2.48877 -7.34001 0.6096 
v 2.48877 -7.03521 0.6096 
vn -0.707107 -2.06049e-16 0.707107 
vn -0.707107 -2.06049e-16 0.707107 
vn -0.707107 -2.06049e-16 0.707107 
vn -0.707107 -2.06049e-16 0.707107 
f 195//195 196//196 197//197 
f 197//197 198//198 195//195 
o mesh43
v 4.62237 -10.7436 0.6096 
v 4.62237 -10.7436 6.7056 
v 4.62237 -9.32121 2.4384 
v 4.62237 -5.84141 6.7056 
v 4.62237 -7.49241 2.4384 
v 4.62237 -5.84141 0.6096 
v 4.62237 -7.49241 0.6096 
v 4.62237 -9.32121 0.6096 
vn -1 0 0 
vn -1 0 0 
vn -1 0 0 
vn -1 0 0 
vn -1 0 0 
vn -1 0 0 
vn -1 0 0 
vn -1 0 0 
f 199//199 200//200 201//201 
f 200//200 202//202 203//203 
f 203//203 201//201 200//200 
f 204//204 205//205 203//203 
f 203//203 202//202 204//204 
f 201//201 206//206 199//199 
o mesh44
v 4.77477 -7.49241 0.6096 
v 4.77477 -7.49241 2.4384 
v 4.62237 -7.49241 2.4384 
v 4.62237 -7.49241 0.6096 
vn 0 -1 0 
vn 0 -1 0 
vn 0 -1 0 
vn 0 -1 0 
f 207//207 208//208 209//209 
f 209//209 210//210 207//207 
o mesh45
v 4.77477 -9.32121 2.4384 
v 4.77477 -9.32121 0.6096 
v 4.62237 -9.32121 0.6096 
v 4.62237 -9.32121 2.4384 
vn 0 1 0 
vn 0 1 0 
vn 0 1 0 
vn 0 1 0 
f 211//211 212//212 213//213 
f 213//213 214//214 211//211 
o mesh46
v 4.77477 -7.49241 2.4384 
v 4.77477 -9.32121 2.4384 
v 4.62237 -9.32121 2.4384 
v 4.62237 -7.49241 2.4384 
vn 0 0 -1 
vn 0 0 -1 
vn 0 0 -1 
vn 0 0 -1 
f 215//215 216//216 217//217 
f 217//217 218//218 215//215 
o mesh47
v 4.77477 -5.68901 0.6096 
v 4.77477 -5.68901 6.4008 
v 4.77477 -7.49241 2.4384 
v 4.77477 -10.5912 6.4008 
v 4.77477 -9.32121 2.4384 
v 4.77477 -10.5912 0.6096 
v 4.77477 -9.32121 0.6096 
v 4.77477 -7.49241 0.6096 
vn 1 0 0 
vn 1 0 0 
vn 1 0 0 
vn 1 0 0 
vn 1 0 0 
vn 1 0 0 
vn 1 0 0 
vn 1 0 0 
f 219//219 220//220 221//221 
f 222//222 223//223 221//221 
f 221//221 220//220 222//222 
f 224//224 225//225 223//223 
f 223//223 222//222 224//224 
f 221//221 226//226 219//219 
o mesh48
v 4.77477 -10.5912 0.6096 
v 4.77477 -10.5912 6.4008 
v 9.04197 -10.5912 6.4008 
v 9.04197 -10.5912 0.6096 
vn 0 1 0 
vn 0 1 0 
vn 0 1 0 
vn 0 1 0 
f 227//227 228//228 229//229 
f 229//229 230//230 227//227 
o mesh49
v 9.04197 4.49639 0.6096 
v 9.04197 -3.04741 0.6096 
v 9.04197 -3.04741 6.4008 
v 9.04197 -10.5912 6.4008 
v 9.04197 -10.5912 0.6096 
v 9.04197 4.49639 6.4008 
vn -1 0 0 
vn -1 0 0 
vn -1 0 0 
vn -1 0 0 
vn -1 0 0 
vn -1 0 0 
f 231//231 232//232 233//233 
f 234//234 233//233 232//232 
f 232//232 235//235 234//234 
f 233//233 236//236 231//231 
o mesh50
v -4.36923 4.49639 0.6096 
v 2.33637 4.49639 0.6096 
v 2.33637 4.49639 6.4008 
v 9.04197 4.49639 6.4008 
v 9.04197 4.49639 0.6096 
v -4.36923 4.49639 6.4008 
vn 0 -1 0 
vn 0 -1 0 
vn 0 -1 0 
vn 0 -1 0 
vn 0 -1 0 
vn 0 -1 0 
f 237//237 238//238 239//239 
f 240//240 239//239 238//238 
f 238//238 241//241 240//240 
f 239//239 242//242 237//237 
o mesh51
v -4.36923 -4.49521 0.6096 
v -4.36923 4.49639 0.6096 
v -4.36923 4.49639 6.4008 
v -4.36923 -4.49521 6.4008 
vn 1 0 0 
vn 1 0 0 
vn 1 0 0 
vn 1 0 0 
f 243//243 244//244 245//245 
f 245//245 246//246 243//243 
o mesh52
v 3.70797 -7.03521 0.6096 
v 2.79357 -7.34001 0.6096 
v 4.62237 -9.32121 0.6096 
v 4.77477 -9.32121 0.6096 
v 4.62237 -10.7436 0.6096 
v 3.70797 -9.77841 0.6096 
v 2.79357 -9.47361 0.6096 
v 4.62237 -5.84141 0.6096 
v 3.70797 -5.84141 0.6096 
v 9.04197 -10.5912 0.6096 
v 4.77477 -7.49241 0.6096 
v 4.62237 -7.49241 0.6096 
v 9.04197 -3.04741 0.6096 
v 4.77477 -5.68901 0.6096 
v 3.86037 -4.49521 0.6096 
v 3.86037 -5.68901 0.6096 
v 2.48877 -9.77841 0.6096 
v 3.70797 -10.7436 0.6096 
v 9.04197 4.49639 0.6096 
v -4.36923 -4.49521 0.6096 
v 2.33637 4.49639 0.6096 
v 4.77477 -10.5912 0.6096 
v 2.48877 -7.03521 0.6096 
v 2.48877 -7.34001 0.6096 
v -4.36923 4.49639 0.6096 
v 2.48877 -9.47361 0.6096 
vn 0 0 1 
vn 0 0 1 
vn 0 0 1 
vn 0 0 1 
vn 0 0 1 
vn 0 0 1 
vn 0 0 1 
vn 0 0 1 
vn 0 0 1 
vn 0 0 1 
vn 0 0 1 
vn 0 0 1 
vn 0 0 1 
vn 0 0 1 
vn 0 0 1 
vn 0 0 1 
vn 0 0 1 
vn 0 0 1 
vn 0 0 1 
vn 0 0 1 
vn 0 0 1 
vn 0 0 1 
vn 0 0 1 
vn 0 0 1 
vn 0 0 1 
vn 0 0 1 
f 247//247 248//248 249//249 
f 249//249 250//250 247//247 
f 251//251 249//249 252//252 
f 248//248 253//253 252//252 
f 254//254 255//255 247//247 
f 256//256 257//257 258//258 
f 250//250 256//256 247//247 
f 252//252 249//249 248//248 
f 258//258 247//247 256//256 
f 259//259 260//260 257//257 
f 261//261 262//262 260//260 
f 263//263 252//252 253//253 
f 252//252 264//264 251//251 
f 257//257 256//256 259//259 
f 259//259 265//265 261//261 
f 266//266 261//261 267//267 
f 250//250 268//268 256//256 
f 269//269 270//270 248//248 
f 260//260 259//259 261//261 
f 261//261 265//265 267//267 
f 248//248 247//247 269//269 
f 267//267 271//271 266//266 
f 247//247 258//258 254//254 
f 253//253 272//272 263//263 
o mesh53
v -4.36923 -4.49521 6.4008 
v -4.36923 4.49639 6.4008 
v 2.33637 4.49639 6.4008 
v 3.86037 -4.49521 6.4008 
v 9.04197 -3.04741 6.4008 
v 4.77477 -5.68901 6.4008 
v 3.86037 -5.68901 6.4008 
v 9.04197 4.49639 6.4008 
v 9.04197 -10.5912 6.4008 
v 4.77477 -10.5912 6.4008 
vn 0 0 -1 
vn 0 0 -1 
vn 0 0 -1 
vn 0 0 -1 
vn 0 0 -1 
vn 0 0 -1 
vn 0 0 -1 
vn 0 0 -1 
vn 0 0 -1 
vn 0 0 -1 
f 273//273 274//274 275//275 
f 276//276 277//277 278//278 
f 275//275 276//276 273//273 
f 278//278 279//279 276//276 
f 276//276 280//280 277//277 
f 281//281 282//282 278//278 
f 278//278 277//277 281//281 
f 275//275 280//280 276//276 
o mesh54
v 3.86037 -5.68901 0.6096 
v 3.86037 -4.49521 0.6096 
v 3.86037 -4.49521 6.4008 
v 3.86037 -5.68901 6.4008 
vn 1 3.71996e-16 0 
vn 1 3.71996e-16 0 
vn 1 3.71996e-16 0 
vn 1 3.71996e-16 0 
f 283//283 284//284 285//285 
f 285//285 286//286 283//283 
o mesh55
v 3.86037 -4.49521 0.6096 
v -4.36923 -4.49521 0.6096 
v -4.36923 -4.49521 6.4008 
v 3.86037 -4.49521 6.4008 
vn 0 1 0 
vn 0 1 0 
vn 0 1 0 
vn 0 1 0 
f 287//287 288//288 289//289 
f 289//289 290//290 287//287 
o mesh56
v 4.77477 -5.68901 0.6096 
v 3.86037 -5.68901 0.6096 
v 3.86037 -5.68901 6.4008 
v 4.77477 -5.68901 6.4008 
vn 0 1 0 
vn 0 1 0 
vn 0 1 0 
vn 0 1 0 
f 291//291 292//292 293//293 
f 293//293 294//294 291//291 
